<svg width="147" height="141" viewBox="0 0 147 141" fill="none" xmlns="http://www.w3.org/2000/svg">
<path d="M16.1548 74.6233C16.1548 42.9522 41.8294 17.2776 73.5005 17.2776C105.172 17.2776 130.846 42.9522 130.846 74.6234V122.913H16.1548V74.6233Z" stroke="white" stroke-width="3"/>
<path d="M26.4624 84.748C26.4624 58.7695 47.5221 37.7099 73.5005 37.7099C99.4789 37.7099 120.539 58.7695 120.539 84.748V123.31H26.4624V84.748Z" stroke="white" stroke-width="3"/>
<path d="M36.7969 91.7897C36.7969 71.5188 53.2297 55.086 73.5005 55.086C93.7714 55.086 110.204 71.5188 110.204 91.7896V122.913H36.7969V91.7897Z" stroke="white" stroke-width="3"/>
<path d="M72.5623 115.432L72.5623 64.8582" stroke="white" stroke-width="3"/>
<path d="M60.1614 75.8374L72.5622 64.8582L84.963 75.8374" stroke="white" stroke-width="3"/>
<path d="M84.9629 105.704L72.5621 116.683L60.1613 105.704" stroke="white" stroke-width="3"/>
</svg>
