<svg width="147" height="141" viewBox="0 0 147 141" fill="none" xmlns="http://www.w3.org/2000/svg">
<path d="M40.9993 111.943C40.9993 115.312 38.11 118.166 34.3899 118.166C30.6697 118.166 27.7804 115.312 27.7804 111.943C27.7804 108.574 30.6697 105.72 34.3899 105.72C38.11 105.72 40.9993 108.574 40.9993 111.943Z" stroke="white" stroke-width="3"/>
<rect x="24.3049" y="22.2315" width="20.1699" height="74.42" rx="8.5" stroke="white" stroke-width="3"/>
<line x1="35.0116" y1="88.0403" x2="35.0116" y2="57.7557" stroke="white" stroke-width="3"/>
<path d="M80.1099 88.0403C80.1099 91.4092 77.2206 94.2636 73.5005 94.2636C69.7803 94.2636 66.891 91.4092 66.891 88.0403C66.891 84.6714 69.7803 81.817 73.5005 81.817C77.2206 81.817 80.1099 84.6714 80.1099 88.0403Z" stroke="white" stroke-width="3"/>
<path d="M125.849 81.7598C125.849 99.3629 110.844 113.756 92.178 113.756C73.5119 113.756 58.5065 99.3629 58.5065 81.7598C58.5065 77.5107 60.5585 71.6546 63.8434 65.0908C67.099 58.5857 71.4548 51.5966 75.833 45.1511C80.2076 38.711 84.585 32.8421 87.8703 28.5816C89.5124 26.4521 90.8803 24.7261 91.8368 23.5335C91.9571 23.3835 92.071 23.242 92.178 23.1091C92.285 23.242 92.3988 23.3835 92.5191 23.5335C93.4757 24.7261 94.8436 26.4521 96.4857 28.5816C99.771 32.8421 104.148 38.711 108.523 45.1511C112.901 51.5966 117.257 58.5857 120.513 65.0908C123.797 71.6546 125.849 77.5107 125.849 81.7598Z" stroke="white" stroke-width="3"/>
<line x1="117.584" y1="31.8566" x2="117.584" y2="39.9921" stroke="white" stroke-width="3"/>
<line x1="117.584" y1="20.7315" x2="117.584" y2="28.867" stroke="white" stroke-width="3"/>
<line x1="127.349" y1="30.6809" x2="118.807" y2="30.6809" stroke="white" stroke-width="3"/>
<line x1="115.836" y1="30.6809" x2="107.293" y2="30.6809" stroke="white" stroke-width="3"/>
</svg>
