<svg width="147" height="141" viewBox="0 0 147 141" fill="none" xmlns="http://www.w3.org/2000/svg">
<mask id="path-1-inside-1_4590_55" fill="white">
<path fill-rule="evenodd" clip-rule="evenodd" d="M100.049 74.657C93.9079 88.5564 83.3817 100.899 71.4273 100.899C59.4729 100.899 48.9467 88.5564 42.806 74.657C37.5919 72.7679 33.6951 65.5187 33.6951 60.8125C33.6951 58.036 35.0514 55.5273 37.2343 53.7345C37.161 52.7411 37.1236 51.7716 37.1236 50.8311C37.1236 31.7624 52.4819 16.3042 71.4273 16.3042C90.3727 16.3042 105.731 31.7624 105.731 50.8311C105.731 51.7716 105.694 52.7411 105.62 53.7345C107.803 55.5273 109.16 58.036 109.16 60.8125C109.16 65.5187 105.263 72.7679 100.049 74.657Z"/>
</mask>
<path d="M100.049 74.657L99.0267 71.8364L97.8222 72.2728L97.3045 73.4446L100.049 74.657ZM42.806 74.657L45.5501 73.4446L45.0324 72.2728L43.8279 71.8364L42.806 74.657ZM37.2343 53.7345L39.1384 56.0528L40.3407 55.0653L40.2262 53.5137L37.2343 53.7345ZM105.62 53.7345L102.628 53.5137L102.514 55.0653L103.716 56.0528L105.62 53.7345ZM71.4273 103.899C78.4776 103.899 84.8115 100.264 90.024 95.1267C95.2534 89.9726 99.613 83.0667 102.793 75.8693L97.3045 73.4446C94.3436 80.1466 90.3697 86.3616 85.8122 90.8535C81.2379 95.362 76.3315 97.8987 71.4273 97.8987V103.899ZM40.0619 75.8693C43.2417 83.0667 47.6012 89.9726 52.8306 95.1267C58.0432 100.264 64.3771 103.899 71.4273 103.899V97.8987C66.5232 97.8987 61.6168 95.362 57.0424 90.8535C52.4849 86.3616 48.5111 80.1466 45.5501 73.4446L40.0619 75.8693ZM30.6951 60.8125C30.6951 63.8718 31.9142 67.4022 33.7417 70.3658C35.5656 73.3234 38.3065 76.2176 41.7841 77.4775L43.8279 71.8364C42.0914 71.2072 40.2769 69.5323 38.8488 67.2165C37.4243 64.9066 36.6951 62.4593 36.6951 60.8125H30.6951ZM35.3303 51.4162C32.5613 53.6903 30.6951 57.0074 30.6951 60.8125H36.6951C36.6951 59.0646 37.5415 57.3643 39.1384 56.0528L35.3303 51.4162ZM34.1236 50.8311C34.1236 51.8506 34.1641 52.894 34.2425 53.9552L40.2262 53.5137C40.1579 52.5882 40.1236 51.6925 40.1236 50.8311H34.1236ZM71.4273 13.3042C50.8068 13.3042 34.1236 30.1239 34.1236 50.8311H40.1236C40.1236 33.4009 54.1571 19.3042 71.4273 19.3042V13.3042ZM108.731 50.8311C108.731 30.1239 92.0479 13.3042 71.4273 13.3042V19.3042C88.6975 19.3042 102.731 33.4009 102.731 50.8311H108.731ZM108.612 53.9553C108.691 52.894 108.731 51.8506 108.731 50.8311H102.731C102.731 51.6925 102.697 52.5882 102.628 53.5137L108.612 53.9553ZM103.716 56.0528C105.313 57.3643 106.16 59.0646 106.16 60.8125H112.16C112.16 57.0074 110.293 53.6903 107.524 51.4162L103.716 56.0528ZM106.16 60.8125C106.16 62.4593 105.43 64.9066 104.006 67.2165C102.578 69.5323 100.763 71.2072 99.0267 71.8364L101.071 77.4775C104.548 76.2176 107.289 73.3234 109.113 70.3658C110.94 67.4022 112.16 63.8718 112.16 60.8125H106.16Z" fill="white" mask="url(#path-1-inside-1_4590_55)"/>
<path d="M99.0899 63.7102L97.3703 57.3411C97.118 56.4063 96.9901 55.4422 96.9901 54.4739V42.4377C96.9901 36.3626 92.0652 31.4377 85.9901 31.4377H56.731C50.6558 31.4377 45.731 36.3631 45.731 42.4382C45.731 46.7802 45.731 50.592 45.731 53.348C45.731 55.5447 45.0732 57.6884 43.8425 59.5081L41.0002 63.7102" stroke="white" stroke-width="3"/>
<path d="M75.3747 75.6962H67.3169" stroke="white" stroke-width="3"/>
<path d="M83.1688 81.2554L72.8942 82.7228C71.8671 82.8695 70.8243 82.8702 69.797 82.7247L59.4189 81.2554" stroke="white" stroke-width="3"/>
<path d="M75.3747 88.9127H67.3169" stroke="white" stroke-width="3"/>
<path d="M50.5045 53.2396L56.0023 52.0512C57.5275 51.7215 59.1053 51.7201 60.6311 52.0471L66.1965 53.2396" stroke="white" stroke-width="3"/>
<path d="M76.4002 53.2396L81.898 52.0512C83.4232 51.7215 85.0011 51.7201 86.5268 52.0471L92.0923 53.2396" stroke="white" stroke-width="3"/>
<path d="M70.9949 113.262L86.2152 122.216C88.2953 118.406 91.4908 112.553 94.0077 107.944C96.1999 103.929 101.054 102.198 105.293 103.92L128.295 113.262" stroke="white" stroke-width="3"/>
<path d="M70.9949 113.262L55.7746 122.216C53.6944 118.406 50.4989 112.553 47.9821 107.944C45.7898 103.929 40.9354 102.198 36.697 103.92L13.6949 113.262" stroke="white" stroke-width="3"/>
<path d="M50.5044 85.5505V102.604L71.5442 113.262L95.7176 100.046" stroke="white" stroke-width="3"/>
<path d="M50.7861 35.229C52.9779 31.982 59.8453 25.1401 69.7812 23.7485C82.201 22.009 92.4291 21.3133 93.8903 14.0075" stroke="white" stroke-width="3"/>
</svg>
