<?xml version="1.0" standalone="no"?>
<!DOCTYPE svg PUBLIC "-//W3C//DTD SVG 20010904//EN"
 "http://www.w3.org/TR/2001/REC-SVG-20010904/DTD/svg10.dtd">
<svg version="1.0" xmlns="http://www.w3.org/2000/svg"
 width="260.000000pt" height="260.000000pt" viewBox="0 0 260.000000 260.000000"
 preserveAspectRatio="xMidYMid meet">
<metadata>
Created by potrace 1.14, written by Peter Selinger 2001-2017
</metadata>
<g transform="translate(0.000000,260.000000) scale(0.100000,-0.100000)"
fill="#000000" stroke="none">
<path d="M0 1300 l0 -1300 1300 0 1300 0 0 1300 0 1300 -1300 0 -1300 0 0
-1300z m1171 490 c37 -20 23 -61 -91 -260 -60 -106 -110 -194 -110 -196 0 -2
60 33 133 76 73 44 143 80 158 80 52 0 64 -48 28 -107 -21 -33 -18 -32 102 41
68 42 131 76 139 76 27 0 53 -25 53 -52 0 -15 -37 -80 -92 -161 -50 -75 -91
-139 -91 -142 0 -3 107 86 238 198 130 111 248 210 262 220 24 17 76 22 115
11 11 -3 30 -21 43 -40 19 -28 28 -34 59 -34 42 0 73 -23 73 -54 0 -12 -11
-38 -25 -59 -14 -20 -23 -37 -20 -37 3 0 74 39 157 87 145 83 152 86 177 72
32 -18 39 -59 14 -81 -33 -29 -497 -288 -517 -288 -24 0 -56 28 -56 49 0 9 26
57 58 106 l58 90 -31 42 c-16 23 -36 42 -43 42 -7 1 -189 -150 -405 -334 -221
-189 -400 -335 -411 -335 -26 0 -56 28 -56 52 0 11 58 108 129 216 72 108 128
198 126 200 -1 2 -49 -26 -106 -61 -129 -79 -136 -81 -165 -62 -29 19 -30 50
-4 90 11 17 20 33 20 37 0 3 -57 -27 -127 -68 -70 -41 -133 -74 -140 -74 -18
0 -53 37 -53 55 0 9 48 99 106 201 58 102 105 186 103 188 -2 2 -188 -118
-412 -266 -224 -147 -416 -268 -427 -268 -41 0 -63 49 -37 82 17 23 1017 678
1034 678 8 0 23 -5 34 -10z"/>
</g>
</svg>
