<svg width="645" height="23" viewBox="0 0 645 23" fill="none" xmlns="http://www.w3.org/2000/svg">
<path d="M1.6084 10.2864L0.108398 10.2864L0.108399 13.2864L1.6084 13.2864L1.6084 10.2864ZM644.061 12.8469C644.646 12.2612 644.646 11.3114 644.061 10.7256L634.515 1.17969C633.929 0.593898 632.979 0.593898 632.393 1.17969C631.808 1.76547 631.808 2.71522 632.393 3.30101L640.879 11.7863L632.393 20.2716C631.808 20.8574 631.808 21.8071 632.393 22.3929C632.979 22.9787 633.929 22.9787 634.515 22.3929L644.061 12.8469ZM1.6084 13.2864L643 13.2863L643 10.2863L1.6084 10.2864L1.6084 13.2864Z" fill="black"/>
</svg>
