<svg width="144" height="58" viewBox="0 0 144 58" fill="none" xmlns="http://www.w3.org/2000/svg">
<g clip-path="url(#clip0_2_1256)">
<path d="M62.7496 57.9999C61.9833 57.9999 61.217 57.7322 60.604 57.2075C59.4107 56.1687 59.1699 54.4017 60.0566 53.0952L75.7112 29.9745L62.0271 38.1454C60.7354 38.9165 59.0933 38.713 58.0423 37.6635C56.9805 36.6033 56.8162 34.997 57.6263 33.7547L60.2537 29.7282L45.4311 38.3061C44.1722 39.0343 42.5629 38.8415 41.5229 37.8456C40.483 36.8389 40.2531 35.2754 40.9865 34.0225L53.6415 12.3367L4.8278 43.6284C3.38276 44.5494 1.45605 44.1639 0.503639 42.7503C-0.437824 41.3367 -0.0437233 39.4519 1.40131 38.5203L60.6916 0.513976C61.9505 -0.2892 63.5816 -0.149983 64.6764 0.856664C65.7711 1.86331 66.0119 3.44824 65.2675 4.72262L52.0432 27.3829L67.9605 18.1624C69.2523 17.4128 70.8834 17.627 71.9234 18.6872C72.9634 19.7474 73.1276 21.343 72.3285 22.5852L69.8982 26.3013L84.0201 17.8733C85.3229 17.0915 86.9649 17.3057 88.0268 18.3766C89.0887 19.4475 89.242 21.0646 88.399 22.3175L77.0358 39.0771L107.491 13.7075L107.524 13.6861C108.093 13.2363 108.816 12.9793 109.56 12.9793H113.731C114.837 12.9793 115.888 13.5468 116.468 14.4678L118.362 17.4449L121.252 17.2414C122.117 17.1772 122.981 17.4663 123.627 18.0339L123.671 18.0768L123.923 18.3123C125.094 19.3618 125.302 21.0646 124.437 22.3604L121.536 26.7082L139.326 16.8345C140.825 15.9992 142.73 16.5132 143.584 17.9804C144.438 19.4475 143.912 21.3109 142.413 22.1462L113.851 37.9955C112.56 38.713 110.928 38.4774 109.91 37.4172C108.881 36.357 108.739 34.7507 109.549 33.5299L116.161 23.6026C115.296 23.442 114.519 22.9386 114.027 22.189L114.016 22.1676L112.045 19.0727H110.655L64.8406 57.2503C64.2494 57.7536 63.4941 57.9999 62.7496 57.9999ZM119.226 19.0191C119.226 19.0191 119.226 19.0299 119.216 19.0299L119.226 19.0191Z" fill="white"/>
<path d="M62.7496 55.1087C62.6839 55.1087 62.6182 55.0873 62.5635 55.0444C62.465 54.9588 62.4431 54.8088 62.5197 54.691L85.5089 20.7328L60.4835 35.6825C60.3741 35.7468 60.2317 35.7361 60.1442 35.6397C60.0566 35.554 60.0347 35.4148 60.1113 35.3077L69.4274 21.0433L43.9204 35.8325C43.8109 35.8967 43.6795 35.8753 43.5919 35.7896C43.5044 35.7039 43.4825 35.5754 43.5481 35.4684L62.3008 3.34132L3.20756 41.2084C3.13093 41.2619 3.03241 41.2405 2.97767 41.1655C2.92293 41.0906 2.94483 40.9942 3.02146 40.9407L62.3117 2.93437C62.4212 2.87012 62.5526 2.88083 62.6511 2.9665C62.7496 3.05217 62.7606 3.18068 62.7058 3.29848L43.9313 35.4469L69.4603 20.6471C69.5697 20.5828 69.7121 20.6042 69.7996 20.6899C69.8872 20.7756 69.8982 20.9148 69.8325 21.0219L60.5164 35.2863L85.5527 20.3365C85.6622 20.2723 85.8045 20.283 85.8921 20.3794C85.9797 20.465 85.9906 20.6042 85.9249 20.7113L63.0123 54.5518L109.374 15.9244C109.429 15.8816 109.494 15.8602 109.549 15.8602H113.72C113.818 15.8602 113.906 15.9137 113.95 15.9887L116.785 20.4436L121.46 20.1223C121.536 20.1223 121.602 20.1438 121.668 20.1866L121.93 20.4222C122.029 20.5079 122.051 20.6578 121.974 20.7649L112.428 35.1042L140.792 19.362C140.869 19.3192 140.968 19.3406 141.011 19.4263C141.055 19.5012 141.033 19.5976 140.946 19.6404L112.384 35.4898C112.275 35.554 112.144 35.5326 112.045 35.4362C111.957 35.3398 111.947 35.2113 112.012 35.1042L121.657 20.6364L121.449 20.4436L116.774 20.7649C116.676 20.7756 116.577 20.722 116.522 20.6364L113.687 16.1814H109.571L62.9248 55.0444C62.881 55.0873 62.8153 55.1087 62.7496 55.1087Z" fill="#393939"/>
</g>
<defs>
<clipPath id="clip0_2_1256">
<rect width="144" height="58" fill="white"/>
</clipPath>
</defs>
</svg>
