<svg width="147" height="141" viewBox="0 0 147 141" fill="none" xmlns="http://www.w3.org/2000/svg">
<path d="M116.291 111.706C116.291 111.944 116.157 112.382 115.435 112.981C114.722 113.573 113.601 114.172 112.083 114.705C109.061 115.765 104.788 116.449 99.9972 116.449C95.2067 116.449 90.9339 115.765 87.9119 114.705C86.394 114.172 85.2725 113.573 84.5596 112.981C83.8376 112.382 83.7036 111.944 83.7036 111.706C83.7036 111.467 83.8376 111.029 84.5596 110.43C85.2725 109.838 86.394 109.239 87.9119 108.706C90.9339 107.646 95.2067 106.962 99.9972 106.962C104.788 106.962 109.061 107.646 112.083 108.706C113.601 109.239 114.722 109.838 115.435 110.43C116.157 111.029 116.291 111.467 116.291 111.706Z" stroke="white" stroke-width="3"/>
<mask id="path-2-inside-1_4590_111" fill="white">
<path fill-rule="evenodd" clip-rule="evenodd" d="M118.299 119.194C118.299 119.192 118.299 119.19 118.299 119.188C118.299 119.187 118.299 119.185 118.299 119.183V111.855C118.299 111.853 118.299 111.851 118.299 111.849C118.299 111.847 118.299 111.845 118.299 111.843V111.418H118.258C117.626 108.092 109.736 105.462 100.096 105.462C90.4553 105.462 82.5653 108.092 81.9334 111.418H81.8926V111.849V119.188V119.62H81.9334C82.5653 122.946 90.4553 125.575 100.096 125.575C109.736 125.575 117.626 122.946 118.258 119.62H118.299V119.194Z"/>
</mask>
<path d="M118.299 111.418H121.299V108.418H118.299V111.418ZM118.258 111.418L115.31 111.978L115.774 114.418H118.258V111.418ZM81.9334 111.418V114.418H84.4171L84.8807 111.978L81.9334 111.418ZM81.8926 111.418V108.418H78.8926V111.418H81.8926ZM81.8926 119.62H78.8926V122.62H81.8926V119.62ZM81.9334 119.62L84.8807 119.06L84.4171 116.62H81.9334V119.62ZM118.258 119.62V116.62H115.774L115.31 119.06L118.258 119.62ZM118.299 119.62V122.62H121.299V119.62H118.299ZM121.299 119.194C121.299 119.197 121.299 119.199 121.299 119.197C121.299 119.197 121.299 119.193 121.299 119.188H115.299C115.299 119.186 115.299 119.184 115.299 119.186C115.299 119.186 115.299 119.19 115.299 119.194H121.299ZM121.299 119.188C121.299 119.184 121.299 119.18 121.299 119.18C121.299 119.178 121.299 119.18 121.299 119.183H115.299C115.299 119.187 115.299 119.191 115.299 119.191C115.299 119.193 115.299 119.191 115.299 119.188H121.299ZM115.299 111.855V119.183H121.299V111.855H115.299ZM121.299 111.855C121.299 111.857 121.299 111.859 121.299 111.858C121.299 111.857 121.299 111.854 121.299 111.849H115.299C115.299 111.847 115.299 111.845 115.299 111.846C115.299 111.847 115.299 111.851 115.299 111.855H121.299ZM121.299 111.849C121.299 111.845 121.299 111.841 121.299 111.84C121.299 111.839 121.299 111.841 121.299 111.843H115.299C115.299 111.848 115.299 111.852 115.299 111.852C115.299 111.853 115.299 111.852 115.299 111.849H121.299ZM115.299 111.418V111.843H121.299V111.418H115.299ZM118.258 114.418H118.299V108.418H118.258V114.418ZM121.205 110.858C120.845 108.964 119.552 107.591 118.277 106.66C116.96 105.7 115.299 104.938 113.494 104.343C109.868 103.149 105.156 102.462 100.096 102.462V108.462C104.675 108.462 108.729 109.091 111.616 110.042C113.068 110.52 114.1 111.04 114.741 111.508C115.424 112.006 115.354 112.209 115.31 111.978L121.205 110.858ZM100.096 102.462C95.0349 102.462 90.3234 103.149 86.6974 104.343C84.8927 104.938 83.2311 105.7 81.9142 106.66C80.6387 107.591 79.346 108.964 78.9861 110.858L84.8807 111.978C84.8368 112.209 84.7672 112.006 85.4502 111.508C86.0916 111.04 87.1235 110.52 88.5753 110.042C91.4624 109.091 95.516 108.462 100.096 108.462V102.462ZM81.8926 114.418H81.9334V108.418H81.8926V114.418ZM84.8926 111.849V111.418H78.8926V111.849H84.8926ZM84.8926 119.188V111.849H78.8926V119.188H84.8926ZM84.8926 119.62V119.188H78.8926V119.62H84.8926ZM81.9334 116.62H81.8926V122.62H81.9334V116.62ZM78.9861 120.18C79.346 122.074 80.6388 123.447 81.9142 124.377C83.2311 125.338 84.8927 126.099 86.6974 126.694C90.3234 127.889 95.0349 128.575 100.096 128.575V122.575C95.516 122.575 91.4624 121.947 88.5753 120.996C87.1235 120.517 86.0916 119.998 85.4502 119.53C84.7672 119.032 84.8368 118.829 84.8807 119.06L78.9861 120.18ZM100.096 128.575C105.156 128.575 109.868 127.889 113.494 126.694C115.299 126.099 116.96 125.338 118.277 124.377C119.552 123.447 120.845 122.074 121.205 120.18L115.31 119.06C115.354 118.829 115.424 119.032 114.741 119.53C114.1 119.998 113.068 120.517 111.616 120.996C108.729 121.947 104.675 122.575 100.096 122.575V128.575ZM118.299 116.62H118.258V122.62H118.299V116.62ZM115.299 119.194V119.62H121.299V119.194H115.299Z" fill="white" mask="url(#path-2-inside-1_4590_111)"/>
<path d="M111.138 85.0454L128.67 101.707C129.944 102.917 132.048 102.014 132.048 100.257V37.5298C132.048 32.007 127.571 27.5298 122.048 27.5298H39.124C33.6012 27.5298 29.124 32.007 29.124 37.5298V100.56C29.124 102.27 27.1169 103.191 25.8201 102.076L9.46228 88.0117C8.05548 86.8021 8.91088 84.4952 10.7662 84.4952H109.76C110.273 84.4952 110.766 84.6921 111.138 85.0454Z" stroke="white" stroke-width="3"/>
<path d="M47.2405 124.817C52.4416 123.402 59.0764 114.046 62.9093 107.616C63.6847 106.316 62.7281 104.706 61.2137 104.706H59.0694C58.4398 104.706 57.8414 105.015 57.4523 105.51C45.1365 121.17 31.7846 115.599 13.2817 112.319C12.0691 112.104 10.9639 113.042 10.9639 114.274V120.914C10.9639 121.717 11.4392 122.442 12.2108 122.666C19.0039 124.631 40.1761 126.739 47.2405 124.817Z" stroke="white" stroke-width="3"/>
<path d="M59.1523 104.706L131.089 15.8956C131.744 15.0875 132.908 14.9159 133.768 15.5008L134.22 15.8084C135.195 16.4714 135.388 17.8291 134.636 18.7372L63.4839 104.706" stroke="white" stroke-width="3"/>
<path d="M8.63501 84.805C13.0588 82.3266 21.9064 73.9499 21.9064 60.2696C21.9064 51.5613 21.9064 40.1817 21.9064 30.8868C21.9064 23.7071 27.7267 17.8904 34.9064 17.8904H111.948C115.286 17.8904 118.496 19.1745 120.914 21.4766L124.334 24.7342C124.73 25.1117 124.955 25.6327 124.955 26.18C124.955 34.4993 124.955 51.6747 124.955 60.2696C124.955 69.1707 116.107 80.3353 111.683 84.805" stroke="white" stroke-width="3"/>
<path d="M70.7483 17.8478L81.8928 28.4616" stroke="white" stroke-width="3"/>
</svg>
