<svg width="121" height="121" viewBox="0 0 121 121" fill="none" xmlns="http://www.w3.org/2000/svg">
<path d="M90.1893 52.0637C92.0149 50.2381 96.9962 47.6823 102.316 52.0637C107.637 56.4451 113.4 52.3244 115.617 49.7163" stroke="black" stroke-width="3"/>
<path d="M90.1893 59.6622C92.0149 57.8366 96.9962 55.2808 102.316 59.6622C107.637 64.0435 113.4 59.9228 115.617 57.3148" stroke="black" stroke-width="3"/>
<path d="M90.1893 44.4657C92.0149 42.6402 96.9962 40.0844 102.316 44.4657C107.637 48.8471 113.4 44.7264 115.617 42.1184" stroke="black" stroke-width="3"/>
<mask id="path-4-inside-1_4590_389" fill="white">
<path fill-rule="evenodd" clip-rule="evenodd" d="M23.161 32.922C13.4424 32.922 5.56396 40.8005 5.56396 50.519C5.56396 60.2376 13.4424 68.116 23.161 68.116H56.6565L76.0003 80.8311C77.3302 81.7053 79.0988 80.7513 79.0988 79.1598V62.5566C83.8738 60.3468 87.1864 55.5132 87.1864 49.9058C87.1864 44.2984 83.8738 39.4648 79.0988 37.255V20.8227C79.0988 19.1974 77.2629 18.2508 75.9389 19.1935L56.6565 32.922H23.161Z"/>
</mask>
<path d="M56.6565 68.116L58.3044 65.6091L57.5542 65.116H56.6565V68.116ZM76.0003 80.8311L74.3524 83.338H74.3524L76.0003 80.8311ZM79.0988 62.5566L77.8389 59.834L76.0988 60.6393V62.5566H79.0988ZM79.0988 37.255H76.0988V39.1723L77.8389 39.9776L79.0988 37.255ZM75.9389 19.1935L74.1989 16.7496V16.7496L75.9389 19.1935ZM56.6565 32.922V35.922H57.6154L58.3965 35.3659L56.6565 32.922ZM8.56396 50.519C8.56396 42.4573 15.0993 35.922 23.161 35.922V29.922C11.7856 29.922 2.56396 39.1436 2.56396 50.519H8.56396ZM23.161 65.116C15.0993 65.116 8.56396 58.5807 8.56396 50.519H2.56396C2.56396 61.8944 11.7856 71.116 23.161 71.116V65.116ZM56.6565 65.116H23.161V71.116H56.6565V65.116ZM77.6481 78.3242L58.3044 65.6091L55.0087 70.6229L74.3524 83.338L77.6481 78.3242ZM76.0988 79.1598C76.0988 78.3641 76.9831 77.8871 77.6481 78.3242L74.3524 83.338C77.6772 85.5235 82.0988 83.1386 82.0988 79.1598H76.0988ZM76.0988 62.5566V79.1598H82.0988V62.5566H76.0988ZM84.1864 49.9058C84.1864 54.3012 81.5924 58.0969 77.8389 59.834L80.3588 65.2792C86.1552 62.5967 90.1864 56.7251 90.1864 49.9058H84.1864ZM77.8389 39.9776C81.5924 41.7147 84.1864 45.5104 84.1864 49.9058H90.1864C90.1864 43.0865 86.1552 37.2149 80.3588 34.5324L77.8389 39.9776ZM76.0988 20.8227V37.255H82.0988V20.8227H76.0988ZM77.6788 21.6374C77.0168 22.1087 76.0988 21.6354 76.0988 20.8227H82.0988C82.0988 16.7594 77.509 14.3929 74.1989 16.7496L77.6788 21.6374ZM58.3965 35.3659L77.6788 21.6374L74.1989 16.7496L54.9166 30.4781L58.3965 35.3659ZM23.161 35.922H56.6565V29.922H23.161V35.922Z" fill="black" mask="url(#path-4-inside-1_4590_389)"/>
<path d="M34.9901 66.786L54.2224 91.8501C57.3627 95.9426 54.4449 101.859 49.2865 101.859V101.859C47.3011 101.859 45.4349 100.912 44.2634 99.3087L20.4939 66.786" stroke="black" stroke-width="3"/>
<line x1="34.6155" y1="33.7209" x2="34.6147" y2="65.4552" stroke="black" stroke-width="3"/>
<line x1="77.6013" y1="37.6787" x2="77.6013" y2="62.3037" stroke="black" stroke-width="3"/>
</svg>
