<svg width="266" height="108" viewBox="0 0 266 108" fill="none" xmlns="http://www.w3.org/2000/svg">
<g clip-path="url(#clip0_2_1188)">
<path d="M115.912 108C114.497 108 113.081 107.502 111.949 106.524C109.745 104.59 109.3 101.3 110.938 98.8672L139.855 55.8147L114.578 71.0297C112.192 72.4654 109.158 72.0865 107.217 70.1323C105.255 68.1582 104.952 65.167 106.449 62.8539L111.302 55.3561L83.9212 71.3288C81.5957 72.6848 78.6231 72.3258 76.702 70.4713C74.7809 68.5969 74.3562 65.6855 75.7111 63.3524L99.0877 22.9721L8.91789 81.2394C6.24859 82.9543 2.68952 82.2365 0.930205 79.6043C-0.808885 76.9721 -0.0808938 73.4625 2.58841 71.7276L112.111 0.957295C114.436 -0.538274 117.449 -0.279042 119.471 1.5954C121.494 3.46985 121.939 6.4211 120.563 8.79407L96.1353 50.989L125.538 33.8199C127.924 32.4241 130.937 32.8229 132.858 34.797C134.78 36.7712 135.083 39.7424 133.607 42.0555L129.117 48.975L155.204 33.2815C157.61 31.8258 160.643 32.2246 162.605 34.2187C164.566 36.2128 164.85 39.2239 163.293 41.557L142.302 72.7645L198.56 25.5245L198.62 25.4846C199.672 24.6471 201.007 24.1685 202.382 24.1685H210.086C212.129 24.1685 214.07 25.2254 215.142 26.9403L218.64 32.4839L223.979 32.105C225.576 31.9854 227.174 32.5238 228.367 33.5806L228.448 33.6604L228.913 34.0991C231.077 36.0533 231.461 39.2239 229.863 41.6368L224.504 49.7328L257.365 31.3472C260.136 29.7919 263.654 30.749 265.232 33.4809C266.809 36.2128 265.838 39.6825 263.068 41.2379L210.309 70.7505C207.922 72.0865 204.909 71.6478 203.029 69.6737C201.128 67.6995 200.865 64.7084 202.361 62.4351L214.575 43.9499C212.978 43.6508 211.542 42.7136 210.632 41.3177L210.612 41.2778L206.972 35.5149H204.404L119.775 106.604C118.683 107.541 117.288 108 115.912 108ZM220.238 35.4152C220.238 35.4152 220.238 35.4351 220.217 35.4351L220.238 35.4152Z" fill="#0069E4"/>
<path d="M115.912 102.616C115.791 102.616 115.67 102.576 115.569 102.496C115.387 102.337 115.346 102.057 115.488 101.838L157.954 38.6054L111.726 66.443C111.524 66.5626 111.261 66.5427 111.1 66.3632C110.938 66.2037 110.897 65.9444 111.039 65.745L128.248 39.1837L81.1306 66.7221C80.9284 66.8418 80.6857 66.8019 80.5239 66.6424C80.3622 66.4828 80.3217 66.2436 80.4431 66.0441L115.083 6.22139L5.92504 76.7325C5.78349 76.8322 5.60149 76.7923 5.50038 76.6527C5.39927 76.5131 5.43971 76.3337 5.58127 76.234L115.104 5.46363C115.306 5.34399 115.548 5.36393 115.73 5.52346C115.912 5.68298 115.933 5.92227 115.832 6.14162L81.1508 66.0043L128.309 38.4459C128.511 38.3263 128.774 38.3661 128.935 38.5257C129.097 38.6852 129.117 38.9444 128.996 39.1438L111.787 65.7052L158.035 37.8676C158.237 37.748 158.5 37.7679 158.662 37.9474C158.823 38.1069 158.844 38.3661 158.722 38.5656L116.398 101.579L202.038 29.652C202.139 29.5722 202.26 29.5323 202.361 29.5323H210.066C210.248 29.5323 210.41 29.632 210.491 29.7716L215.728 38.067L224.363 37.4688C224.504 37.4688 224.626 37.5087 224.747 37.5885L225.232 38.0272C225.414 38.1867 225.455 38.4659 225.313 38.6653L207.68 65.3661L260.075 36.053C260.217 35.9732 260.399 36.0131 260.479 36.1726C260.56 36.3122 260.52 36.4917 260.358 36.5715L207.599 66.084C207.397 66.2037 207.154 66.1638 206.972 65.9843C206.81 65.8049 206.79 65.5656 206.911 65.3661L224.727 38.426L224.343 38.067L215.708 38.6653C215.526 38.6852 215.344 38.5855 215.243 38.426L210.005 30.1306H202.402L116.236 102.496C116.155 102.576 116.034 102.616 115.912 102.616Z" fill="white"/>
</g>
<defs>
<clipPath id="clip0_2_1188">
<rect width="266" height="108" fill="white"/>
</clipPath>
</defs>
</svg>
