<svg width="147" height="141" viewBox="0 0 147 141" fill="none" xmlns="http://www.w3.org/2000/svg">
<path d="M43.3732 30.3885C43.3732 37.6478 37.1723 43.656 29.3672 43.656C21.5622 43.656 15.3613 37.6478 15.3613 30.3885C15.3613 23.1291 21.5622 17.1209 29.3672 17.1209C37.1723 17.1209 43.3732 23.1291 43.3732 30.3885Z" stroke="white" stroke-width="3"/>
<path d="M28.9274 25.1107V33.4816" stroke="white" stroke-width="3"/>
<path d="M33.3221 11.8567L24.5327 11.8567" stroke="white" stroke-width="3"/>
<mask id="path-4-inside-1_4590_160" fill="white">
<path fill-rule="evenodd" clip-rule="evenodd" d="M74.0254 51.0192C82.0214 51.0192 88.5035 44.7869 88.5035 37.099H102.612H103.661V37.6816L130.5 52.5801L116.669 75.613L103.661 68.3922V105.044H44.3895V67.8096L30.3318 75.613L16.5007 52.5801L44.3895 37.099H59.5473C59.5473 44.7869 66.0294 51.0192 74.0254 51.0192Z"/>
</mask>
<path d="M88.5035 37.099V34.099H85.5035V37.099H88.5035ZM103.661 37.099H106.661V34.099H103.661V37.099ZM103.661 37.6816H100.661V39.4475L102.205 40.3046L103.661 37.6816ZM130.5 52.5801L133.072 54.1245L134.67 51.4635L131.956 49.9571L130.5 52.5801ZM116.669 75.613L115.213 78.236L117.748 79.6433L119.241 77.1574L116.669 75.613ZM103.661 68.3922L105.117 65.7693L100.661 63.2957V68.3922H103.661ZM103.661 105.044V108.044H106.661V105.044H103.661ZM44.3895 105.044H41.3895V108.044H44.3895V105.044ZM44.3895 67.8096H47.3895V62.7131L42.9334 65.1866L44.3895 67.8096ZM30.3318 75.613L27.7599 77.1574L29.2526 79.6433L31.7878 78.236L30.3318 75.613ZM16.5007 52.5801L15.0447 49.9571L12.3309 51.4635L13.9288 54.1245L16.5007 52.5801ZM44.3895 37.099V34.099H43.6126L42.9334 34.476L44.3895 37.099ZM59.5473 37.099H62.5473V34.099H59.5473V37.099ZM85.5035 37.099C85.5035 43.02 80.4768 48.0192 74.0254 48.0192V54.0192C83.5661 54.0192 91.5035 46.5537 91.5035 37.099H85.5035ZM88.5035 40.099H102.612V34.099H88.5035V40.099ZM102.612 40.099H103.661V34.099H102.612V40.099ZM100.661 37.099V37.6816H106.661V37.099H100.661ZM102.205 40.3046L129.044 55.203L131.956 49.9571L105.117 35.0587L102.205 40.3046ZM127.928 51.0356L114.097 74.0686L119.241 77.1574L133.072 54.1245L127.928 51.0356ZM118.125 72.99L105.117 65.7693L102.205 71.0152L115.213 78.236L118.125 72.99ZM100.661 68.3922V105.044H106.661V68.3922H100.661ZM103.661 102.044H44.3895V108.044H103.661V102.044ZM47.3895 105.044V67.8096H41.3895V105.044H47.3895ZM42.9334 65.1866L28.8758 72.99L31.7878 78.236L45.8455 70.4326L42.9334 65.1866ZM32.9037 74.0686L19.0727 51.0357L13.9288 54.1245L27.7599 77.1574L32.9037 74.0686ZM17.9568 55.203L45.8455 39.7219L42.9334 34.476L15.0447 49.9571L17.9568 55.203ZM44.3895 40.099H59.5473V34.099H44.3895V40.099ZM74.0254 48.0192C67.574 48.0192 62.5473 43.02 62.5473 37.099H56.5473C56.5473 46.5537 64.4847 54.0192 74.0254 54.0192V48.0192Z" fill="white" mask="url(#path-4-inside-1_4590_160)"/>
<path d="M44.2208 124.779V119.792H65.6158V124.779" stroke="white" stroke-width="3"/>
<path d="M84.1154 124.779V119.792H105.51V124.779" stroke="white" stroke-width="3"/>
<path d="M54.7693 119.169V109.195" stroke="white" stroke-width="3"/>
<path d="M94.8127 119.169V109.195" stroke="white" stroke-width="3"/>
</svg>
