<svg width="121" height="121" viewBox="0 0 121 121" fill="none" xmlns="http://www.w3.org/2000/svg">
<g clip-path="url(#clip0_4590_303)">
<path d="M73.9696 62.7754C72.5732 61.379 70.6183 57.5688 73.9696 53.4993C77.3209 49.4297 74.169 45.0211 72.1741 43.3254" stroke="black" stroke-width="3"/>
<path d="M79.7815 62.7754C78.3851 61.379 76.4301 57.5688 79.7815 53.4993C83.1328 49.4297 79.9809 45.0211 77.986 43.3254" stroke="black" stroke-width="3"/>
<path d="M68.1578 62.7754C66.7614 61.379 64.8065 57.5688 68.1578 53.4993C71.5091 49.4297 68.3572 45.0211 66.3623 43.3254" stroke="black" stroke-width="3"/>
<path d="M100.167 80.5742H24.239L17.5952 93.8617C18.0698 95.7599 21.3916 99.5563 30.8826 99.5563H87.354C100.641 99.5563 105.229 95.7599 105.861 93.8617L100.167 80.5742Z" stroke="black" stroke-width="3"/>
<path d="M20.4427 97.658C20.9173 100.505 23.1951 106.2 28.5101 106.2C35.1537 106.2 82.1341 106.2 90.2015 106.2C98.2688 106.2 104.754 98.6071 105.387 94.8107" stroke="black" stroke-width="3"/>
<path d="M46.3078 80.5457C46.3078 80.5457 39.8472 84.8342 39.8472 88.6306C39.8471 93.3761 48.8478 93.2003 79.2347 94.7996C86.4479 95.1792 84.248 88.6306 79.2347 80.5457" stroke="black" stroke-width="3"/>
<path d="M101.116 80.098H107.286C107.286 76.7761 107.286 69.2782 107.286 65.8615C107.286 61.5905 103.964 52.5741 91.6254 52.5741C83.5581 52.5741 62.7752 52.5741 62.7752 35.8228C62.7752 28.2795 62.7751 16.7916 62.7752 12.7657C60.8232 12.7657 56.9194 13.9856 56.9194 18.8653C56.9194 23.7451 56.9194 30.3327 56.9194 33.0166" stroke="black" stroke-width="3"/>
<path d="M24.4888 80.8236C17.6792 75.2646 15.2165 62.543 18.5444 54.9487C22.1263 46.7748 21.3917 36.4412 21.3917 36.4412V14.1374C23.6063 13.6629 28.0354 15.0865 28.0354 24.5775C28.0354 34.0685 28.0354 33.9103 28.0354 32.6448C32.3063 32.6448 41.8922 32.6448 46.0683 32.6448C51.2883 32.6448 54.6101 35.4921 54.6101 41.1867C54.6101 46.8813 56.9829 54.9487 70.2703 54.9487H81.2522" stroke="black" stroke-width="3"/>
<line x1="10.0317" y1="110.605" x2="10.0317" y2="117.946" stroke="black" stroke-width="3"/>
<line x1="10.0317" y1="99.5052" x2="10.0317" y2="106.846" stroke="black" stroke-width="3"/>
<line x1="19.2122" y1="108.629" x2="11.8719" y2="108.629" stroke="black" stroke-width="3"/>
<line x1="8.3186" y1="108.629" x2="0.978339" y2="108.629" stroke="black" stroke-width="3"/>
</g>
<defs>
<clipPath id="clip0_4590_303">
<rect width="120" height="120" fill="white" transform="translate(0.242554 0.396973)"/>
</clipPath>
</defs>
</svg>
