<svg width="121" height="121" viewBox="0 0 121 121" fill="none" xmlns="http://www.w3.org/2000/svg">
<path d="M8.71411 64.7881C10.5397 62.9626 15.521 60.4068 20.8413 64.7881C26.1615 69.1695 31.9252 65.0488 34.142 62.4408" stroke="black" stroke-width="3"/>
<path d="M8.71411 72.3865C10.5397 70.561 15.521 68.0052 20.8413 72.3865C26.1615 76.7679 31.9252 72.6472 34.142 70.0392" stroke="black" stroke-width="3"/>
<path d="M8.71411 57.1901C10.5397 55.3645 15.521 52.8088 20.8413 57.1901C26.1615 61.5715 31.9252 57.4508 34.142 54.8427" stroke="black" stroke-width="3"/>
<mask id="path-4-inside-1_4590_337" fill="white">
<path fill-rule="evenodd" clip-rule="evenodd" d="M64.3451 25.8827C71.2159 25.8827 76.7859 20.2597 76.7859 13.3233L88.9087 13.3232H89.8106V13.8489L112.873 27.291L100.988 48.0725L89.8106 41.5575V74.6262H38.8794V41.0318L26.7998 48.0725L14.915 27.291L38.8794 13.3232L51.9043 13.3233C51.9043 20.2597 57.4742 25.8827 64.3451 25.8827Z"/>
</mask>
<path d="M76.7859 13.3233L76.7859 10.3233L73.7859 10.3233V13.3233H76.7859ZM88.9087 13.3232V10.3232H88.9087L88.9087 13.3232ZM89.8106 13.3232H92.8106V10.3232H89.8106V13.3232ZM89.8106 13.8489H86.8106V15.5728L88.2999 16.4408L89.8106 13.8489ZM112.873 27.291L115.477 28.7804L116.954 26.1975L114.384 24.6992L112.873 27.291ZM100.988 48.0725L99.4775 50.6643L102.091 52.1875L103.592 49.5618L100.988 48.0725ZM89.8106 41.5575L91.3213 38.9657L86.8106 36.3366V41.5575H89.8106ZM89.8106 74.6262V77.6262H92.8106V74.6262H89.8106ZM38.8794 74.6262H35.8794V77.6262H38.8794V74.6262ZM38.8794 41.0318H41.8794V35.8109L37.3687 38.44L38.8794 41.0318ZM26.7998 48.0725L24.1956 49.5618L25.6973 52.1875L28.3105 50.6643L26.7998 48.0725ZM14.915 27.291L13.4043 24.6992L10.8337 26.1975L12.3108 28.7804L14.915 27.291ZM38.8794 13.3232L38.8794 10.3232L38.0689 10.3232L37.3687 10.7314L38.8794 13.3232ZM51.9043 13.3233H54.9043V10.3233L51.9043 10.3233L51.9043 13.3233ZM73.7859 13.3233C73.7859 18.6297 69.5323 22.8827 64.3451 22.8827V28.8827C72.8996 28.8827 79.7859 21.8896 79.7859 13.3233H73.7859ZM76.7859 16.3233L88.9087 16.3232L88.9087 10.3232L76.7859 10.3233L76.7859 16.3233ZM88.9087 16.3232H89.8106V10.3232H88.9087V16.3232ZM86.8106 13.3232V13.8489H92.8106V13.3232H86.8106ZM88.2999 16.4408L111.362 29.8829L114.384 24.6992L91.3213 11.2571L88.2999 16.4408ZM110.269 25.8017L98.384 46.5831L103.592 49.5618L115.477 28.7804L110.269 25.8017ZM102.499 45.4806L91.3213 38.9657L88.2999 44.1494L99.4775 50.6643L102.499 45.4806ZM86.8106 41.5575V74.6262H92.8106V41.5575H86.8106ZM89.8106 71.6262H38.8794V77.6262H89.8106V71.6262ZM41.8794 74.6262V41.0318H35.8794V74.6262H41.8794ZM37.3687 38.44L25.2892 45.4806L28.3105 50.6643L40.3901 43.6237L37.3687 38.44ZM29.4041 46.5831L17.5192 25.8017L12.3108 28.7804L24.1956 49.5618L29.4041 46.5831ZM16.4257 29.8829L40.3901 15.9151L37.3687 10.7314L13.4043 24.6992L16.4257 29.8829ZM38.8794 16.3232L51.9043 16.3233L51.9043 10.3233L38.8794 10.3232L38.8794 16.3232ZM64.3451 22.8827C59.1579 22.8827 54.9043 18.6297 54.9043 13.3233H48.9043C48.9043 21.8896 55.7906 28.8827 64.3451 28.8827V22.8827Z" fill="black" mask="url(#path-4-inside-1_4590_337)"/>
<path d="M38.7343 106.405V101.906H57.1186V106.405" stroke="black" stroke-width="3"/>
<path d="M73.0146 106.405V101.906H91.399V106.405" stroke="black" stroke-width="3"/>
<path d="M47.7985 101.343V92.3447" stroke="black" stroke-width="3"/>
<path d="M65.1666 72.1381L65.1666 92.3447" stroke="black" stroke-width="3"/>
<path d="M93.7638 92.3447L37.832 92.3447" stroke="black" stroke-width="3"/>
<path d="M82.2068 101.343V92.3447" stroke="black" stroke-width="3"/>
</svg>
