<svg width="121" height="121" viewBox="0 0 121 121" fill="none" xmlns="http://www.w3.org/2000/svg">
<mask id="path-1-inside-1_4590_322" fill="white">
<path fill-rule="evenodd" clip-rule="evenodd" d="M94.4478 41.9211H30.7903V47.3347H25.6656C17.4541 47.3347 10.7974 53.9915 10.7974 62.203C10.7974 70.4145 17.4541 77.0712 25.6656 77.0712H33.1679C37.9283 88.6527 49.3214 96.8074 62.6191 96.8074C80.1976 96.8074 94.4478 82.5573 94.4478 64.9787V41.9211ZM30.7903 56.5807V64.9787C30.7903 65.9382 30.8328 66.8877 30.9159 67.8255L26.7776 67.8255C23.6724 67.8255 21.1552 65.3083 21.1552 62.2031C21.1552 59.0979 23.6724 56.5807 26.7776 56.5807H30.7903Z"/>
</mask>
<path d="M30.7903 41.9211V38.9211H27.7903V41.9211H30.7903ZM94.4478 41.9211H97.4478V38.9211H94.4478V41.9211ZM30.7903 47.3347V50.3347H33.7903V47.3347H30.7903ZM10.7974 62.203H13.7974H10.7974ZM33.1679 77.0712L35.9426 75.9307L35.1783 74.0712H33.1679V77.0712ZM30.7903 56.5807H33.7903V53.5807H30.7903V56.5807ZM30.9159 67.8255L30.9159 70.8255L34.1936 70.8255L33.9042 67.5606L30.9159 67.8255ZM26.7776 67.8255L26.7776 64.8255H26.7776V67.8255ZM21.1552 62.2031L24.1552 62.2031V62.2031H21.1552ZM30.7903 44.9211H94.4478V38.9211H30.7903V44.9211ZM33.7903 47.3347V41.9211H27.7903V47.3347H33.7903ZM30.7903 44.3347H25.6656V50.3347H30.7903V44.3347ZM25.6656 44.3347C15.7973 44.3347 7.79736 52.3346 7.79736 62.203H13.7974C13.7974 55.6483 19.111 50.3347 25.6656 50.3347V44.3347ZM7.79736 62.203C7.79736 72.0714 15.7972 80.0712 25.6656 80.0712V74.0712C19.111 74.0712 13.7974 68.7576 13.7974 62.203H7.79736ZM25.6656 80.0712H33.1679V74.0712H25.6656V80.0712ZM62.6191 93.8074C50.5794 93.8074 40.2567 86.4263 35.9426 75.9307L30.3932 78.2118C35.5999 90.8791 48.0633 99.8074 62.6191 99.8074V93.8074ZM91.4478 64.9787C91.4478 80.9004 78.5407 93.8074 62.6191 93.8074V99.8074C81.8545 99.8074 97.4478 84.2141 97.4478 64.9787H91.4478ZM91.4478 41.9211V64.9787H97.4478V41.9211H91.4478ZM33.7903 64.9787V56.5807H27.7903V64.9787H33.7903ZM33.9042 67.5606C33.8289 66.7108 33.7903 65.8496 33.7903 64.9787H27.7903C27.7903 66.0267 27.8367 67.0646 27.9276 68.0904L33.9042 67.5606ZM26.7776 70.8255L30.9159 70.8255L30.9159 64.8255L26.7776 64.8255L26.7776 70.8255ZM18.1552 62.2031C18.1552 66.9651 22.0156 70.8255 26.7776 70.8255V64.8255C25.3293 64.8255 24.1552 63.6514 24.1552 62.2031L18.1552 62.2031ZM26.7776 53.5807C22.0156 53.5807 18.1552 57.4411 18.1552 62.2031H24.1552C24.1552 60.7548 25.3293 59.5807 26.7776 59.5807V53.5807ZM30.7903 53.5807H26.7776V59.5807H30.7903V53.5807Z" fill="black" mask="url(#path-1-inside-1_4590_322)"/>
<path d="M61.51 36.2384C59.6844 34.4128 57.1286 29.4315 61.51 24.1113C65.8913 18.791 61.7707 13.0273 59.1626 10.8105" stroke="black" stroke-width="3"/>
<path d="M69.1085 36.2384C67.2829 34.4128 64.7271 29.4315 69.1085 24.1113C73.4899 18.791 69.3692 13.0273 66.7611 10.8105" stroke="black" stroke-width="3"/>
<path d="M53.9121 36.2384C52.0865 34.4128 49.5307 29.4315 53.9121 24.1113C58.2934 18.791 54.1728 13.0273 51.5647 10.8105" stroke="black" stroke-width="3"/>
<path d="M14.9142 98.6999C14.9142 97.9375 15.5322 97.3195 16.2947 97.3195H107.121C107.884 97.3195 108.502 97.9375 108.502 98.6999C108.502 99.3094 108.102 99.8467 107.519 100.022L88.5197 105.729C86.6065 106.304 84.6196 106.596 82.622 106.596H61.708H40.7941C38.7964 106.596 36.8095 106.304 34.8964 105.729L15.8975 100.022C15.3138 99.8467 14.9142 99.3094 14.9142 98.6999Z" stroke="black" stroke-width="3"/>
</svg>
