<svg width="128" height="53" viewBox="0 0 128 53" fill="none" xmlns="http://www.w3.org/2000/svg">
<g clip-path="url(#clip0_2_1093)">
<path d="M55.7774 52.8583C55.0962 52.8583 54.4151 52.6182 53.8701 52.1478C52.8095 51.2165 52.5954 49.6323 53.3836 48.4609L67.2987 27.732L55.1351 35.0577C53.9869 35.749 52.5273 35.5666 51.5931 34.6256C50.6492 33.6751 50.5032 32.2349 51.2233 31.1212L53.5587 27.5112L40.3831 35.2017C39.2641 35.8546 37.8336 35.6818 36.9092 34.7889C35.9848 33.8863 35.7804 32.4846 36.4324 31.3612L47.6813 11.9188L4.29129 39.9735C3.00682 40.7992 1.29418 40.4536 0.447597 39.1862C-0.389258 37.9188 -0.0389466 36.229 1.24553 35.3937L53.948 1.31914C55.067 0.599049 56.5169 0.723864 57.49 1.62637C58.4631 2.52889 58.6772 3.94986 58.0155 5.0924L46.2606 25.4085L60.4093 17.1419C61.5575 16.4698 63.0074 16.6618 63.9319 17.6123C64.8563 18.5629 65.0023 19.9934 64.2919 21.1072L62.1316 24.4388L74.6845 16.8827C75.8425 16.1818 77.3021 16.3738 78.246 17.3339C79.1899 18.294 79.3261 19.7438 78.5768 20.8671L68.4762 35.893L95.5475 13.1478L95.5767 13.1286C96.0827 12.7253 96.7249 12.4949 97.3866 12.4949H101.094C102.077 12.4949 103.011 13.0038 103.527 13.8295L105.21 16.4986L107.779 16.3162C108.548 16.2586 109.317 16.5178 109.891 17.0267L109.93 17.0651L110.154 17.2763C111.195 18.2172 111.38 19.7438 110.611 20.9055L108.032 24.8036L123.845 15.9513C125.178 15.2024 126.871 15.6633 127.63 16.9787C128.389 18.294 127.922 19.9646 126.589 20.7135L101.201 34.9233C100.053 35.5665 98.603 35.3553 97.698 34.4048C96.7833 33.4543 96.6568 32.0141 97.3769 30.9196L103.254 22.0193C102.486 21.8753 101.795 21.424 101.357 20.7519L101.347 20.7327L99.5955 17.958H98.3597L57.636 52.1862C57.1105 52.6374 56.4391 52.8583 55.7774 52.8583ZM105.979 17.91C105.979 17.91 105.979 17.9196 105.969 17.9196L105.979 17.91Z" fill="white"/>
<path d="M55.7774 50.2661C55.719 50.2661 55.6606 50.2469 55.612 50.2085C55.5244 50.1317 55.5049 49.9973 55.573 49.8917L76.0079 19.4463L53.7631 32.8496C53.6658 32.9072 53.5393 32.8976 53.4614 32.8112C53.3836 32.7344 53.3641 32.6096 53.4322 32.5136L61.7132 19.7248L39.0403 32.984C38.943 33.0416 38.8262 33.0224 38.7483 32.9456C38.6705 32.8688 38.651 32.7536 38.7094 32.6576L55.3784 3.85403L2.85113 37.8038C2.78301 37.8518 2.69543 37.8326 2.64678 37.7654C2.59812 37.6982 2.61759 37.6118 2.6857 37.5638L55.3881 3.48918C55.4855 3.43157 55.6022 3.44118 55.6898 3.51799C55.7774 3.59479 55.7871 3.71001 55.7385 3.81562L39.05 32.6384L61.7424 19.3695C61.8397 19.3119 61.9662 19.3311 62.0441 19.4079C62.1219 19.4848 62.1317 19.6096 62.0733 19.7056L53.7923 32.4944L76.0468 19.0911C76.1441 19.0335 76.2706 19.0431 76.3485 19.1295C76.4263 19.2063 76.436 19.3311 76.3777 19.4271L56.0109 49.7669L97.2212 15.1354C97.2699 15.097 97.3282 15.0778 97.3769 15.0778H101.084C101.172 15.0778 101.25 15.1258 101.289 15.193L103.809 19.1871L107.964 18.8991C108.032 18.8991 108.091 18.9183 108.149 18.9567L108.383 19.1679C108.47 19.2447 108.49 19.3791 108.421 19.4752L99.9361 32.3311L125.149 18.2174C125.217 18.179 125.305 18.1982 125.343 18.275C125.382 18.3422 125.363 18.4286 125.285 18.467L99.8972 32.6768C99.7999 32.7344 99.6831 32.7152 99.5955 32.6288C99.5177 32.5424 99.508 32.4271 99.5663 32.3311L108.139 19.3599L107.954 19.1871L103.799 19.4752C103.712 19.4848 103.624 19.4367 103.575 19.3599L101.055 15.3658H97.3964L55.9331 50.2085C55.8942 50.2469 55.8358 50.2661 55.7774 50.2661Z" fill="white"/>
</g>
<defs>
<clipPath id="clip0_2_1093">
<rect width="128" height="52" fill="white" transform="translate(0 0.858398)"/>
</clipPath>
</defs>
</svg>
